<svg xmlns="http://www.w3.org/2000/svg" width="980" height="620">
<rect x="0" y="0" width="980" height="620" fill="white"/>
<text x="490.0" y="36" text-anchor="middle" font-size="26" font-family="sans-serif">Convergence Time when Available Bandwidth is Halved</text>
<line x1="90" y1="540" x2="940" y2="540" stroke="black"/>
<line x1="90" y1="70" x2="90" y2="540" stroke="black"/>
<line x1="90.0" y1="70" x2="90.0" y2="540" stroke="#dddddd"/>
<line x1="90" y1="540.0" x2="940" y2="540.0" stroke="#dddddd"/>
<text x="90.0" y="564" text-anchor="middle" font-size="14" font-family="sans-serif">500</text>
<text x="78" y="544.0" text-anchor="end" font-size="14" font-family="sans-serif">1.6</text>
<line x1="260.0" y1="70" x2="260.0" y2="540" stroke="#dddddd"/>
<line x1="90" y1="446.0" x2="940" y2="446.0" stroke="#dddddd"/>
<text x="260.0" y="564" text-anchor="middle" font-size="14" font-family="sans-serif">2000</text>
<text x="78" y="450.0" text-anchor="end" font-size="14" font-family="sans-serif">14.2</text>
<line x1="430.0" y1="70" x2="430.0" y2="540" stroke="#dddddd"/>
<line x1="90" y1="352.0" x2="940" y2="352.0" stroke="#dddddd"/>
<text x="430.0" y="564" text-anchor="middle" font-size="14" font-family="sans-serif">3500</text>
<text x="78" y="356.0" text-anchor="end" font-size="14" font-family="sans-serif">26.8</text>
<line x1="600.0" y1="70" x2="600.0" y2="540" stroke="#dddddd"/>
<line x1="90" y1="258.0" x2="940" y2="258.0" stroke="#dddddd"/>
<text x="600.0" y="564" text-anchor="middle" font-size="14" font-family="sans-serif">5000</text>
<text x="78" y="262.0" text-anchor="end" font-size="14" font-family="sans-serif">39.4</text>
<line x1="770.0" y1="70" x2="770.0" y2="540" stroke="#dddddd"/>
<line x1="90" y1="164.0" x2="940" y2="164.0" stroke="#dddddd"/>
<text x="770.0" y="564" text-anchor="middle" font-size="14" font-family="sans-serif">6500</text>
<text x="78" y="168.0" text-anchor="end" font-size="14" font-family="sans-serif">52.0</text>
<line x1="940.0" y1="70" x2="940.0" y2="540" stroke="#dddddd"/>
<line x1="90" y1="70.0" x2="940" y2="70.0" stroke="#dddddd"/>
<text x="940.0" y="564" text-anchor="middle" font-size="14" font-family="sans-serif">8000</text>
<text x="78" y="74.0" text-anchor="end" font-size="14" font-family="sans-serif">64.6</text>
<polyline points="90.00,507.52 146.67,486.24 260.00,427.26 373.33,365.29 486.67,303.32 600.00,240.60 713.33,176.77 826.67,113.68 940.00,70.00" fill="none" stroke="#1f77b4" stroke-width="2.5"/>
<circle cx="90.00" cy="507.52" r="4.5" fill="#1f77b4"/>
<circle cx="146.67" cy="486.24" r="4.5" fill="#1f77b4"/>
<circle cx="260.00" cy="427.26" r="4.5" fill="#1f77b4"/>
<circle cx="373.33" cy="365.29" r="4.5" fill="#1f77b4"/>
<circle cx="486.67" cy="303.32" r="4.5" fill="#1f77b4"/>
<circle cx="600.00" cy="240.60" r="4.5" fill="#1f77b4"/>
<circle cx="713.33" cy="176.77" r="4.5" fill="#1f77b4"/>
<circle cx="826.67" cy="113.68" r="4.5" fill="#1f77b4"/>
<circle cx="940.00" cy="70.00" r="4.5" fill="#1f77b4"/>
<polyline points="90.00,540.00 146.67,539.25" fill="none" stroke="#d62728" stroke-width="2.5"/>
<circle cx="90.00" cy="540.00" r="4.5" fill="#d62728"/>
<circle cx="146.67" cy="539.25" r="4.5" fill="#d62728"/>
<text x="490.0" y="602" text-anchor="middle" font-size="18" font-family="sans-serif">BDP (Kb)</text>
<text x="26" y="310.0" text-anchor="middle" font-size="18" font-family="sans-serif" transform="rotate(-90 26,310.0)">Convergence Time (s)</text>
<rect x="770" y="90" width="150" height="58" fill="#f8f8f8" stroke="#cccccc"/>
<line x1="780" y1="110" x2="810" y2="110" stroke="#1f77b4" stroke-width="2.5"/>
<circle cx="795" cy="110" r="4" fill="#1f77b4"/>
<text x="818" y="114" font-size="14" font-family="sans-serif">Vegas</text>
<line x1="780" y1="132" x2="810" y2="132" stroke="#d62728" stroke-width="2.5"/>
<circle cx="795" cy="132" r="4" fill="#d62728"/>
<text x="818" y="136" font-size="14" font-family="sans-serif">Quick Vegas</text>
</svg>